<?xml version="1.0" encoding="utf-8"?>
<!-- Generator: Adobe Illustrator 24.1.1, SVG Export Plug-In . SVG Version: 6.00 Build 0)  -->
<svg version="1.1" id="Capa_1" xmlns="http://www.w3.org/2000/svg" xmlns:xlink="http://www.w3.org/1999/xlink" x="0px" y="0px"
	 viewBox="0 0 52 52" style="enable-background:new 0 0 52 52;" xml:space="preserve">
<style type="text/css">
	.st0{fill:#727272;}
</style>
<path class="st0" d="M41.2,16.6l0-0.2l0-0.1L41,16.2l-0.1-0.1l-0.1,0L40.7,16l0,0l-14.9-5.4c-0.2-0.1-0.3-0.1-0.5,0l-14.2,5.3l0,0
	l0,0L10.9,16l-0.1,0.1c0,0-0.1,0.2-0.1,0.2s0,0.1,0,0.2v0l0,0l0,0v18.6c0,0.3,0.2,0.5,0.4,0.6l14.6,6l0.2,0l0.2,0l14.7-6
	c0.3-0.1,0.4-0.4,0.4-0.6V16.6C41.2,16.6,41.2,16.6,41.2,16.6C41.2,16.6,41.2,16.6,41.2,16.6z M31.9,14.2L20,19.4l-1.6-0.6l11.9-5
	L31.9,14.2z M17.7,19.9l0.3,0.1l1.6,0.7l-0.1,6.9l-1.8-0.7L17.7,19.9z M26.6,21.5l-0.7,0.3l-0.2-0.1l-3.9-1.6l12-5.2l4.7,1.7
	L26.6,21.5z M25.6,12l2.9,1l-11.7,5l-3.4-1.4L25.6,12z M12.1,17.6l4.2,1.7l0,8c0,0.3,0.2,0.5,0.4,0.6l3.2,1.4c0.1,0,0.2,0.1,0.3,0.1
	c0.1,0,0.3,0,0.4-0.1c0.2-0.1,0.3-0.3,0.3-0.6l0.2-7.4l4.3,1.8v17.1l-13.2-5.4V17.6z M39.8,34.7l-13.2,5.4V23l13.2-5.4V34.7z"/>
<path class="st0" d="M31.6,36c0.1,0.1,0.3,0.1,0.4,0.1c0.1,0,0.2,0,0.3-0.1l5.8-2.5c0.3-0.1,0.4-0.4,0.4-0.6v-7.4
	c0-0.2-0.1-0.5-0.3-0.6c-0.2-0.1-0.4-0.2-0.7-0.1l-5.8,2.5c-0.3,0.1-0.4,0.4-0.4,0.6v7.4C31.2,35.7,31.4,35.9,31.6,36z M32.6,28.5
	l4.4-1.9v5.9l-4.4,1.9V28.5z"/>
</svg>
