<?xml version="1.0" encoding="utf-8"?>
<!-- Generator: Adobe Illustrator 24.1.1, SVG Export Plug-In . SVG Version: 6.00 Build 0)  -->
<svg version="1.1" id="Capa_1" xmlns="http://www.w3.org/2000/svg" xmlns:xlink="http://www.w3.org/1999/xlink" x="0px" y="0px"
	 viewBox="0 0 52 52" style="enable-background:new 0 0 52 52;" xml:space="preserve">
<style type="text/css">
	.st0{fill:#727272;}
</style>
<path class="st0" d="M14.6,40.1c0,0.4,0.3,0.7,0.7,0.7h23.5c0.4,0,0.7-0.3,0.7-0.7V10.1c0-0.4-0.3-0.7-0.7-0.7H23.3v7.8
	c0,0.4-0.3,0.7-0.7,0.7h-8.1V40.1z M25.3,23.8h8.5c0.4,0,0.7,0.3,0.7,0.7c0,0.4-0.3,0.7-0.7,0.7h-8.5c-0.4,0-0.7-0.3-0.7-0.7
	C24.7,24.1,25,23.8,25.3,23.8z M25.3,28.4h8.5c0.4,0,0.7,0.3,0.7,0.7c0,0.4-0.3,0.7-0.7,0.7h-8.5c-0.4,0-0.7-0.3-0.7-0.7
	C24.7,28.6,25,28.4,25.3,28.4z M25.3,32.9h8.5c0.4,0,0.7,0.3,0.7,0.7s-0.3,0.7-0.7,0.7h-8.5c-0.4,0-0.7-0.3-0.7-0.7
	S25,32.9,25.3,32.9z M20.1,23.8H22c0.4,0,0.7,0.3,0.7,0.7s-0.3,0.7-0.7,0.7h-1.9c-0.4,0-0.7-0.3-0.7-0.7S19.7,23.8,20.1,23.8z
	 M20.1,28.4H22c0.4,0,0.7,0.3,0.7,0.7c0,0.4-0.3,0.7-0.7,0.7h-1.9c-0.4,0-0.7-0.3-0.7-0.7C19.4,28.6,19.7,28.4,20.1,28.4z
	 M20.1,32.9H22c0.4,0,0.7,0.3,0.7,0.7s-0.3,0.7-0.7,0.7h-1.9c-0.4,0-0.7-0.3-0.7-0.7S19.7,32.9,20.1,32.9z"/>
<polygon class="st0" points="15,16 22,16 22,9.2 "/>
</svg>
